# xmcd CD database file
#
# Track frame offsets:
#	150
#	22772
#	43437
#	60875
#	84457
#	104150
#	125510
#	148547
#	168190
#	187822
#	204852
#	236502
#	258095
#	276037
#
# Disc length: 4054 seconds
#
# Revision: 6
# Processed by: cddbd v1.4PL0 Copyright (c) Steve Scherf et al.
# Submitted via: CDex 1.51
#
DISCID=b30fd40e
DTITLE=Mariah Carey - Butterfly
DYEAR=1997
DGENRE=Blues
TTITLE0=Honey
TTITLE1=Butterfly
TTITLE2=My All
TTITLE3=The Roof
TTITLE4=Fourth Of July
TTITLE5=Breakdown
TTITLE6=Babydoll
TTITLE7=Close My Eyes
TTITLE8=Whenever You Call
TTITLE9=Fly Away (Butterfly Reprise)
TTITLE10=The Beautiful Ones
TTITLE11=Outside
TTITLE12=Honey (So So Def Radio Mix)
TTITLE13=Honey (Def Club Mix)
EXTD=YEAR: 1997
EXTT0=
EXTT1=
EXTT2=
EXTT3=
EXTT4=
EXTT5=
EXTT6=
EXTT7=
EXTT8=
EXTT9=
EXTT10=
EXTT11=
EXTT12=Featuring Da Brat and JD
EXTT13=
PLAYORDER=
